<svg width="20" height="20" viewBox="0 0 20 20" fill="none" xmlns="http://www.w3.org/2000/svg">
<path d="M16.3369 0.355423L19.6446 3.59423L17.9888 5.24998L13.3774 9.86144L13.1991 10.0397L13.3788 10.2165L17.9903 14.7515L17.9903 14.7515L17.9926 14.7537L19.6426 16.335L16.335 19.6426L14.7537 17.9926L14.7538 17.9926L14.7515 17.9903L10.2165 13.3788L10.0397 13.1991L9.86144 13.3774L5.24998 17.9888L3.59423 19.6446L0.355423 16.3369L2.00737 14.7537L2.00741 14.7538L2.01117 14.75L6.5462 10.215L6.72151 10.0397L6.54767 9.86292L2.01264 5.25146L2.01265 5.25145L2.01117 5.24998L0.353553 3.59236L3.59236 0.353553L5.24998 2.01117L5.24997 2.01118L5.25146 2.01264L9.86292 6.54767L10.0397 6.72151L10.215 6.5462L14.75 2.01117L14.7501 2.01121L14.7537 2.00737L16.3369 0.355423Z" fill="#FF5ED5" stroke="black" stroke-width="0.5"/>
</svg>
