<svg width="119" height="60" viewBox="0 0 119 60" fill="none" xmlns="http://www.w3.org/2000/svg">
<path d="M19.8841 0.959016C17.4458 2.42199 16.0133 4.73838 14.3675 9.79784C12.7216 14.9487 10.2224 21.5931 8.14983 26.5002C5.40674 32.9617 5.31531 35.4609 7.72313 38.204C9.91759 40.7032 12.935 41.709 19.0612 41.9529L23.2368 42.1357V46.5247C23.2368 51.6146 23.7549 54.3882 25.0655 56.4912C26.5894 58.899 29.0277 59.7524 31.1613 58.6552C33.2033 57.5884 34.1177 55.2111 34.5444 49.8164C34.7273 47.6219 35.0016 45.0617 35.1844 44.0864L35.5197 42.3186L37.9885 41.069C44.2671 37.9297 45.6691 36.0705 43.9623 33.2664C43.1394 31.9254 41.8288 31.1939 39.8172 30.9501C37.8056 30.7062 35.7331 29.7309 35.7026 28.9994C35.6721 28.7251 35.7026 26.2259 35.7026 23.4523C35.7331 20.0387 35.6111 17.8442 35.3064 16.6555C34.4225 12.9371 31.6489 11.718 28.2048 13.4858C26.7418 14.2477 25.4313 16.0765 24.7302 18.2709C24.2426 19.8863 23.633 25.2505 23.5416 28.6946C23.5416 29.9138 20.0365 29.0909 18.6955 27.5364C17.903 26.6526 17.7506 26.2259 17.7506 24.9458C17.7506 22.2027 19.427 18.3624 23.4501 11.8094C25.8884 7.87768 26.5894 6.17087 26.5894 4.31167C26.5894 2.45247 25.8884 1.17237 24.4559 0.440878C23.0539 -0.290611 21.7129 -0.107738 19.8841 0.959016Z" fill="black" fill-opacity="0.31"/>
<path d="M94.2519 0.959016C91.8136 2.42199 90.3811 4.73838 88.7353 9.79784C87.0894 14.9487 84.5902 21.5931 82.5176 26.5002C79.7745 32.9617 79.6831 35.4609 82.0909 38.204C84.2854 40.7032 87.3028 41.709 93.429 41.9529L97.6046 42.1357V46.5247C97.6046 51.6146 98.1227 54.3882 99.4333 56.4912C100.957 58.899 103.396 59.7524 105.529 58.6552C107.571 57.5884 108.485 55.2111 108.912 49.8164C109.095 47.6219 109.369 45.0617 109.552 44.0864L109.888 42.3186L112.356 41.069C118.635 37.9297 120.037 36.0705 118.33 33.2664C117.507 31.9254 116.197 31.1939 114.185 30.9501C112.173 30.7062 110.101 29.7309 110.07 28.9994C110.04 28.7251 110.07 26.2259 110.07 23.4523C110.101 20.0387 109.979 17.8442 109.674 16.6555C108.79 12.9371 106.017 11.718 102.573 13.4858C101.11 14.2477 99.7991 16.0765 99.098 18.2709C98.6104 19.8863 98.0008 25.2505 97.9094 28.6946C97.9094 29.9138 94.4043 29.0909 93.0633 27.5364C92.2708 26.6526 92.1184 26.2259 92.1184 24.9458C92.1184 22.2027 93.7947 18.3624 97.8179 11.8094C100.256 7.87768 100.957 6.17087 100.957 4.31167C100.957 2.45247 100.256 1.17237 98.8237 0.440878C97.4217 -0.290611 96.0807 -0.107738 94.2519 0.959016Z" fill="black" fill-opacity="0.31"/>
<path d="M60.9095 2.26961C56.8558 3.30588 52.7717 6.32328 50.0896 10.2855C46.0054 16.3508 44.1767 25.6773 45.1825 35.278C46.3712 46.3418 51.6135 53.6872 59.5684 55.333C65.1156 56.4912 71.3637 53.5043 75.5088 47.6829C80.3854 40.8557 81.2998 30.4624 78.3128 15.6802C78.069 14.4916 77.9471 13.0286 78.0081 12.3885C78.0995 11.6875 77.9776 10.6817 77.6423 9.82833C76.6975 7.39003 72.3695 3.73259 68.8949 2.48296C67.0662 1.84291 63.104 1.72099 60.9095 2.26961ZM62.7687 13.7296C65.7251 14.8268 67.1272 18.21 67.1272 24.3057C67.1272 32.5959 64.7803 40.0632 61.8239 41.2824C59.9037 42.1053 56.8863 40.429 55.5453 37.7773C53.8994 34.577 53.9604 28.6032 55.7281 20.3435C56.9168 14.8268 59.4161 12.4495 62.7687 13.7296Z" fill="black" fill-opacity="0.31"/>
<path d="M16.8841 0.959016C14.4458 2.42199 13.0133 4.73838 11.3675 9.79784C9.72163 14.9487 7.22238 21.5931 5.14983 26.5002C2.40674 32.9617 2.31531 35.4609 4.72313 38.204C6.91759 40.7032 9.93499 41.709 16.0612 41.9529L20.2368 42.1357V46.5247C20.2368 51.6146 20.7549 54.3882 22.0655 56.4912C23.5894 58.899 26.0277 59.7524 28.1613 58.6552C30.2033 57.5884 31.1177 55.2111 31.5444 49.8164C31.7273 47.6219 32.0016 45.0617 32.1844 44.0864L32.5197 42.3186L34.9885 41.069C41.2671 37.9297 42.6691 36.0705 40.9623 33.2664C40.1394 31.9254 38.8288 31.1939 36.8172 30.9501C34.8056 30.7062 32.7331 29.7309 32.7026 28.9994C32.6721 28.7251 32.7026 26.2259 32.7026 23.4523C32.7331 20.0387 32.6111 17.8442 32.3064 16.6555C31.4225 12.9371 28.6489 11.718 25.2048 13.4858C23.7418 14.2477 22.4313 16.0765 21.7302 18.2709C21.2426 19.8863 20.633 25.2505 20.5416 28.6946C20.5416 29.9138 17.0365 29.0909 15.6955 27.5364C14.903 26.6526 14.7506 26.2259 14.7506 24.9458C14.7506 22.2027 16.427 18.3624 20.4501 11.8094C22.8884 7.87768 23.5894 6.17087 23.5894 4.31167C23.5894 2.45247 22.8884 1.17237 21.4559 0.440878C20.0539 -0.290611 18.7129 -0.107738 16.8841 0.959016Z" fill="black"/>
<path d="M91.2519 0.959016C88.8136 2.42199 87.3811 4.73838 85.7353 9.79784C84.0894 14.9487 81.5902 21.5931 79.5176 26.5002C76.7745 32.9617 76.6831 35.4609 79.0909 38.204C81.2854 40.7032 84.3028 41.709 90.429 41.9529L94.6046 42.1357V46.5247C94.6046 51.6146 95.1227 54.3882 96.4333 56.4912C97.9572 58.899 100.396 59.7524 102.529 58.6552C104.571 57.5884 105.485 55.2111 105.912 49.8164C106.095 47.6219 106.369 45.0617 106.552 44.0864L106.888 42.3186L109.356 41.069C115.635 37.9297 117.037 36.0705 115.33 33.2664C114.507 31.9254 113.197 31.1939 111.185 30.9501C109.173 30.7062 107.101 29.7309 107.07 28.9994C107.04 28.7251 107.07 26.2259 107.07 23.4523C107.101 20.0387 106.979 17.8442 106.674 16.6555C105.79 12.9371 103.017 11.718 99.5726 13.4858C98.1096 14.2477 96.7991 16.0765 96.098 18.2709C95.6104 19.8863 95.0008 25.2505 94.9094 28.6946C94.9094 29.9138 91.4043 29.0909 90.0633 27.5364C89.2708 26.6526 89.1184 26.2259 89.1184 24.9458C89.1184 22.2027 90.7947 18.3624 94.8179 11.8094C97.2562 7.87768 97.9572 6.17087 97.9572 4.31167C97.9572 2.45247 97.2562 1.17237 95.8237 0.440878C94.4217 -0.290611 93.0807 -0.107738 91.2519 0.959016Z" fill="black"/>
<path d="M57.9095 2.26961C53.8558 3.30588 49.7717 6.32328 47.0896 10.2855C43.0054 16.3508 41.1767 25.6773 42.1825 35.278C43.3712 46.3418 48.6135 53.6872 56.5684 55.333C62.1156 56.4912 68.3637 53.5043 72.5088 47.6829C77.3854 40.8557 78.2998 30.4624 75.3128 15.6802C75.069 14.4916 74.9471 13.0286 75.0081 12.3885C75.0995 11.6875 74.9776 10.6817 74.6423 9.82833C73.6975 7.39003 69.3695 3.73259 65.8949 2.48296C64.0662 1.84291 60.104 1.72099 57.9095 2.26961ZM59.7687 13.7296C62.7251 14.8268 64.1272 18.21 64.1272 24.3057C64.1272 32.5959 61.7803 40.0632 58.8239 41.2824C56.9037 42.1053 53.8863 40.429 52.5453 37.7773C50.8994 34.577 50.9604 28.6032 52.7281 20.3435C53.9168 14.8268 56.4161 12.4495 59.7687 13.7296Z" fill="black"/>
<path d="M13.8841 0.959016C11.4458 2.42199 10.0133 4.73838 8.36748 9.79784C6.72163 14.9487 4.22238 21.5931 2.14983 26.5002C-0.593256 32.9617 -0.684692 35.4609 1.72313 38.204C3.91759 40.7032 6.93499 41.709 13.0612 41.9529L17.2368 42.1357V46.5247C17.2368 51.6146 17.7549 54.3882 19.0655 56.4912C20.5894 58.899 23.0277 59.7524 25.1613 58.6552C27.2033 57.5884 28.1177 55.2111 28.5444 49.8164C28.7273 47.6219 29.0016 45.0617 29.1844 44.0864L29.5197 42.3186L31.9885 41.069C38.2671 37.9297 39.6691 36.0705 37.9623 33.2664C37.1394 31.9254 35.8288 31.1939 33.8172 30.9501C31.8056 30.7062 29.7331 29.7309 29.7026 28.9994C29.6721 28.7251 29.7026 26.2259 29.7026 23.4523C29.7331 20.0387 29.6111 17.8442 29.3064 16.6555C28.4225 12.9371 25.6489 11.718 22.2048 13.4858C20.7418 14.2477 19.4313 16.0765 18.7302 18.2709C18.2426 19.8863 17.633 25.2505 17.5416 28.6946C17.5416 29.9138 14.0365 29.0909 12.6955 27.5364C11.903 26.6526 11.7506 26.2259 11.7506 24.9458C11.7506 22.2027 13.427 18.3624 17.4501 11.8094C19.8884 7.87768 20.5894 6.17087 20.5894 4.31167C20.5894 2.45247 19.8884 1.17237 18.4559 0.440878C17.0539 -0.290611 15.7129 -0.107738 13.8841 0.959016Z" fill="#FF5C79"/>
<path d="M88.2519 0.959016C85.8136 2.42199 84.3811 4.73838 82.7353 9.79784C81.0894 14.9487 78.5902 21.5931 76.5176 26.5002C73.7745 32.9617 73.6831 35.4609 76.0909 38.204C78.2854 40.7032 81.3028 41.709 87.429 41.9529L91.6046 42.1357V46.5247C91.6046 51.6146 92.1227 54.3882 93.4333 56.4912C94.9572 58.899 97.3955 59.7524 99.5291 58.6552C101.571 57.5884 102.485 55.2111 102.912 49.8164C103.095 47.6219 103.369 45.0617 103.552 44.0864L103.888 42.3186L106.356 41.069C112.635 37.9297 114.037 36.0705 112.33 33.2664C111.507 31.9254 110.197 31.1939 108.185 30.9501C106.173 30.7062 104.101 29.7309 104.07 28.9994C104.04 28.7251 104.07 26.2259 104.07 23.4523C104.101 20.0387 103.979 17.8442 103.674 16.6555C102.79 12.9371 100.017 11.718 96.5726 13.4858C95.1096 14.2477 93.7991 16.0765 93.098 18.2709C92.6104 19.8863 92.0008 25.2505 91.9094 28.6946C91.9094 29.9138 88.4043 29.0909 87.0633 27.5364C86.2708 26.6526 86.1184 26.2259 86.1184 24.9458C86.1184 22.2027 87.7947 18.3624 91.8179 11.8094C94.2562 7.87768 94.9572 6.17087 94.9572 4.31167C94.9572 2.45247 94.2562 1.17237 92.8237 0.440878C91.4217 -0.290611 90.0807 -0.107738 88.2519 0.959016Z" fill="#FF5C79"/>
<path d="M54.9095 2.26961C50.8558 3.30588 46.7717 6.32328 44.0896 10.2855C40.0054 16.3508 38.1767 25.6773 39.1825 35.278C40.3712 46.3418 45.6135 53.6872 53.5684 55.333C59.1156 56.4912 65.3637 53.5043 69.5088 47.6829C74.3854 40.8557 75.2998 30.4624 72.3128 15.6802C72.069 14.4916 71.9471 13.0286 72.0081 12.3885C72.0995 11.6875 71.9776 10.6817 71.6423 9.82833C70.6975 7.39003 66.3695 3.73259 62.8949 2.48296C61.0662 1.84291 57.104 1.72099 54.9095 2.26961ZM56.7687 13.7296C59.7251 14.8268 61.1272 18.21 61.1272 24.3057C61.1272 32.5959 58.7803 40.0632 55.8239 41.2824C53.9037 42.1053 50.8863 40.429 49.5453 37.7773C47.8994 34.577 47.9604 28.6032 49.7281 20.3435C50.9168 14.8268 53.4161 12.4495 56.7687 13.7296Z" fill="#FF5C79"/>
</svg>
